<svg width="108" height="108" viewBox="0 0 108 108" fill="none" xmlns="http://www.w3.org/2000/svg">
<path d="M42.7436 6.47074L84.7971 30.5994M42.7436 6.47074L7.25465 67.7274C0.554669 79.292 4.53073 94.0797 16.1354 100.757C27.7401 107.433 42.579 103.471 49.279 91.9064L56.7554 79.0016M42.7436 6.47074L38.5641 4M84.7971 30.5994L73.5102 50.0815M84.7971 30.5994L89 33.0187M73.5102 50.0815L64.9432 64.8689M73.5102 50.0815L60.72 42.7226M64.9432 64.8689L56.7554 79.0016M64.9432 64.8689L43.9284 52.7778M56.7554 79.0016L43.6919 71.4854" stroke="#E5B522" stroke-width="7.5" stroke-linecap="round"/>
<path d="M104 68.583C104 74.3359 99.5228 78.9996 94 78.9996C88.4772 78.9996 84 74.3359 84 68.583C84 64.9834 87.9148 60.1791 90.8456 57.0868C92.5806 55.2562 95.4194 55.2562 97.1544 57.0868C100.085 60.1791 104 64.9834 104 68.583Z" stroke="#E5B522" stroke-width="7.5"/>
</svg>
