<svg width="100" height="100" viewBox="0 0 100 100" fill="none" xmlns="http://www.w3.org/2000/svg">
<rect width="100" height="100" rx="30" fill="#FAFAFA"/>
<g opacity="0.25" filter="url(#filter0_f_755_2301)">
<rect x="15.0664" y="50" width="68.1223" height="42.5764" rx="21.2882" fill="url(#paint0_linear_755_2301)"/>
</g>
<rect x="13" y="13" width="73.7991" height="73.7991" rx="30" fill="url(#paint1_linear_755_2301)"/>
<g clip-path="url(#clip0_755_2301)" filter="url(#filter1_i_755_2301)">
<path d="M58.875 64.9375H40.125C34.5 64.9375 30.75 62.125 30.75 55.5625V42.4375C30.75 35.875 34.5 33.0625 40.125 33.0625H58.875C64.5 33.0625 68.25 35.875 68.25 42.4375V55.5625C68.25 62.125 64.5 64.9375 58.875 64.9375Z" fill="#FAFAFA" stroke="#FAFAFA" stroke-width="2.8125" stroke-miterlimit="10" stroke-linecap="round" stroke-linejoin="round"/>
<path d="M58.875 43.375L53.0062 48.0625C51.075 49.6 47.9062 49.6 45.975 48.0625L40.125 43.375" stroke="#292D32" stroke-width="2.8125" stroke-miterlimit="10" stroke-linecap="round" stroke-linejoin="round"/>
</g>
<defs>
<filter id="filter0_f_755_2301" x="9.60641" y="44.54" width="79.0411" height="53.4967" filterUnits="userSpaceOnUse" color-interpolation-filters="sRGB">
<feFlood flood-opacity="0" result="BackgroundImageFix"/>
<feBlend mode="normal" in="SourceGraphic" in2="BackgroundImageFix" result="shape"/>
<feGaussianBlur stdDeviation="2.73" result="effect1_foregroundBlur_755_2301"/>
</filter>
<filter id="filter1_i_755_2301" x="27" y="27" width="45" height="45.5" filterUnits="userSpaceOnUse" color-interpolation-filters="sRGB">
<feFlood flood-opacity="0" result="BackgroundImageFix"/>
<feBlend mode="normal" in="SourceGraphic" in2="BackgroundImageFix" result="shape"/>
<feColorMatrix in="SourceAlpha" type="matrix" values="0 0 0 0 0 0 0 0 0 0 0 0 0 0 0 0 0 0 127 0" result="hardAlpha"/>
<feOffset dy="0.5"/>
<feGaussianBlur stdDeviation="1.25"/>
<feComposite in2="hardAlpha" operator="arithmetic" k2="-1" k3="1"/>
<feColorMatrix type="matrix" values="0 0 0 0 0 0 0 0 0 0 0 0 0 0 0 0 0 0 0.1 0"/>
<feBlend mode="normal" in2="shape" result="effect1_innerShadow_755_2301"/>
</filter>
<linearGradient id="paint0_linear_755_2301" x1="53.8356" y1="93.8462" x2="39.95" y2="44.9043" gradientUnits="userSpaceOnUse">
<stop/>
<stop offset="1" stop-color="#323232"/>
</linearGradient>
<linearGradient id="paint1_linear_755_2301" x1="55" y1="89" x2="20.5" y2="13" gradientUnits="userSpaceOnUse">
<stop stop-color="#2A2C36"/>
<stop offset="1" stop-color="#323232"/>
</linearGradient>
<clipPath id="clip0_755_2301">
<rect width="45" height="45" fill="white" transform="translate(27 27)"/>
</clipPath>
</defs>
</svg>
