<svg width="120" height="120" viewBox="0 0 120 120" fill="none" xmlns="http://www.w3.org/2000/svg">
<path d="M89.8981 53.95V73.95C89.8981 75.25 89.8481 76.5 89.6981 77.7C88.5481 91.2 80.5981 97.8999 65.9481 97.8999H63.9481C62.6981 97.8999 61.498 98.5 60.748 99.5L54.7481 107.5C52.0981 111.05 47.798 111.05 45.148 107.5L39.148 99.5C38.498 98.65 37.0481 97.8999 35.9481 97.8999H33.9481C17.9981 97.8999 9.99805 93.95 9.99805 73.95V53.95C9.99805 39.3 16.7481 31.35 30.1981 30.2C31.3981 30.05 32.6481 30 33.9481 30H65.9481C81.8981 30 89.8981 38 89.8981 53.95Z" stroke="#70B049" stroke-width="7.5" stroke-miterlimit="10" stroke-linecap="round" stroke-linejoin="round"/>
<path d="M109.901 33.95V53.95C109.901 68.65 103.151 76.55 89.7011 77.7C89.8511 76.5 89.9012 75.25 89.9012 73.95V53.95C89.9012 38 81.9011 30 65.9511 30H33.9512C32.6512 30 31.4012 30.05 30.2012 30.2C31.3512 16.75 39.3012 10 53.9512 10H85.9511C101.901 10 109.901 18 109.901 33.95Z" stroke="#70B049" stroke-width="7.5" stroke-miterlimit="10" stroke-linecap="round" stroke-linejoin="round"/>
<path d="M67.4775 66.25H67.5225" stroke="#70B049" stroke-width="10" stroke-linecap="round" stroke-linejoin="round"/>
<path d="M49.9775 66.25H50.0225" stroke="#70B049" stroke-width="10" stroke-linecap="round" stroke-linejoin="round"/>
<path d="M32.4775 66.25H32.5225" stroke="#70B049" stroke-width="10" stroke-linecap="round" stroke-linejoin="round"/>
</svg>
