<svg width="20" height="24" viewBox="0 0 20 24" fill="none" xmlns="http://www.w3.org/2000/svg">
<path d="M13.967 4.925C13.4203 4.92447 12.8961 4.70704 12.5095 4.32046C12.1229 3.93387 11.9055 3.4097 11.905 2.86299V0H2.691C1.9773 0 1.29284 0.283523 0.788177 0.788184C0.283517 1.29284 0 1.97729 0 2.69099V18.913C0.00105984 19.626 0.285042 20.3094 0.789587 20.8132C1.29413 21.317 1.97799 21.6 2.691 21.6H13.752C14.465 21.6 15.1489 21.317 15.6534 20.8132C16.158 20.3094 16.4419 19.626 16.443 18.913V4.925H13.967Z" fill="white"/>
<path d="M16.4423 4.925H13.9663C13.4196 4.92447 12.8954 4.70704 12.5088 4.32046C12.1222 3.93387 11.9048 3.4097 11.9043 2.86299V0L16.4423 4.925Z" fill="#FF3E4C"/>
<path d="M13.0603 15.084H2.73633C2.63687 15.084 2.54149 15.0444 2.47116 14.9741C2.40083 14.9038 2.36133 14.8084 2.36133 14.709C2.36159 14.6097 2.40122 14.5145 2.47151 14.4444C2.54181 14.3743 2.63704 14.335 2.73633 14.335H13.0603C13.1595 14.335 13.2546 14.3743 13.3248 14.4445C13.3949 14.5146 13.4343 14.6098 13.4343 14.709C13.4345 14.7582 13.4249 14.8069 13.4061 14.8524C13.3874 14.8979 13.3599 14.9392 13.3251 14.974C13.2904 15.0089 13.2491 15.0365 13.2037 15.0554C13.1582 15.0743 13.1095 15.084 13.0603 15.084Z" fill="#FF3E4C"/>
<path d="M13.0603 10.8603H2.73633C2.63704 10.8603 2.54181 10.8209 2.47151 10.7508C2.40122 10.6807 2.36159 10.5856 2.36133 10.4863C2.36133 10.3869 2.40083 10.2915 2.47116 10.2211C2.54149 10.1508 2.63687 10.1113 2.73633 10.1113H13.0603C13.1095 10.1113 13.1582 10.121 13.2037 10.1399C13.2491 10.1588 13.2904 10.1864 13.3251 10.2212C13.3599 10.2561 13.3874 10.2974 13.4061 10.3429C13.4249 10.3884 13.4345 10.4371 13.4343 10.4863C13.4343 10.5855 13.3949 10.6806 13.3248 10.7508C13.2546 10.8209 13.1595 10.8603 13.0603 10.8603Z" fill="#FF3E4C"/>
<path d="M13.0603 12.9717H2.73633C2.63687 12.9717 2.54149 12.9321 2.47116 12.8618C2.40083 12.7915 2.36133 12.6961 2.36133 12.5967C2.36159 12.4974 2.40122 12.4022 2.47151 12.3321C2.54181 12.262 2.63704 12.2227 2.73633 12.2227H13.0603C13.1595 12.2227 13.2546 12.2621 13.3248 12.3322C13.3949 12.4023 13.4343 12.4975 13.4343 12.5967C13.4345 12.6459 13.4249 12.6946 13.4061 12.7401C13.3874 12.7856 13.3599 12.8269 13.3251 12.8618C13.2904 12.8966 13.2491 12.9242 13.2037 12.9431C13.1582 12.9619 13.1095 12.9717 13.0603 12.9717Z" fill="#FF3E4C"/>
<path d="M8.98833 8.74802H2.73633C2.63704 8.74802 2.54181 8.70866 2.47151 8.63855C2.40122 8.56844 2.36159 8.47331 2.36133 8.37402C2.36133 8.27457 2.40083 8.17919 2.47116 8.10886C2.54149 8.03854 2.63687 7.99902 2.73633 7.99902H8.98833C9.08761 7.99929 9.18274 8.03891 9.25285 8.1092C9.32296 8.1795 9.36233 8.27474 9.36233 8.37402C9.36206 8.47313 9.32258 8.5681 9.2525 8.63818C9.18241 8.70826 9.08744 8.74776 8.98833 8.74802Z" fill="#FF3E4C"/>
<path d="M8.98833 6.63572H2.73633C2.63704 6.63572 2.54181 6.59633 2.47151 6.52622C2.40122 6.45611 2.36159 6.361 2.36133 6.26172C2.36133 6.16226 2.40083 6.06686 2.47116 5.99653C2.54149 5.92621 2.63687 5.88672 2.73633 5.88672H8.98833C9.08761 5.88698 9.18274 5.9266 9.25285 5.9969C9.32296 6.0672 9.36233 6.16244 9.36233 6.26172C9.36206 6.36083 9.32258 6.4558 9.2525 6.52588C9.18241 6.59596 9.08744 6.63545 8.98833 6.63572Z" fill="#FF3E4C"/>
<path d="M18.3932 17.0605H5.8892C5.00223 17.0605 4.2832 17.7796 4.2832 18.6665V22.3945C4.2832 23.2815 5.00223 24.0005 5.8892 24.0005H18.3932C19.2802 24.0005 19.9992 23.2815 19.9992 22.3945V18.6665C19.9992 17.7796 19.2802 17.0605 18.3932 17.0605Z" fill="#FF3E4C"/>
<path d="M8.38677 21.3379V22.0649H7.63477V21.3379H8.38677Z" fill="white"/>
<path d="M9.49263 21.0096V22.0646H8.76562V19.0576H9.94363C10.3006 19.0576 10.5736 19.1466 10.7606 19.3236C10.8553 19.4166 10.9291 19.5285 10.9774 19.6521C11.0256 19.7757 11.0472 19.9081 11.0406 20.0406C11.0443 20.2154 11.0011 20.3881 10.9156 20.5406C10.8283 20.6897 10.6989 20.8098 10.5436 20.8856C10.3563 20.9741 10.1507 21.017 9.94363 21.0106L9.49263 21.0096ZM10.3006 20.0406C10.3006 19.7739 10.1546 19.6406 9.86263 19.6406H9.49263V20.4236H9.86263C10.1546 20.4263 10.3006 20.2986 10.3006 20.0406Z" fill="white"/>
<path d="M13.9134 21.3402C13.7882 21.5675 13.5991 21.7532 13.3694 21.8742C13.111 22.0065 12.8237 22.0721 12.5334 22.0652H11.3984V19.0582H12.5334C12.8239 19.0509 13.1117 19.1151 13.3714 19.2452C13.6005 19.3635 13.7891 19.5473 13.9134 19.7732C14.0436 20.0129 14.109 20.2824 14.1034 20.5552C14.1089 20.8288 14.0434 21.0993 13.9134 21.3402ZM13.1314 21.1892C13.2127 21.1057 13.2757 21.0062 13.3163 20.8971C13.357 20.7879 13.3744 20.6715 13.3674 20.5552C13.3744 20.439 13.357 20.3227 13.3164 20.2137C13.2758 20.1047 13.2128 20.0054 13.1314 19.9222C12.9496 19.7626 12.712 19.6813 12.4704 19.6962H12.1254V21.4142H12.4704C12.7118 21.4288 12.9492 21.348 13.1314 21.1892Z" fill="white"/>
<path d="M16.4766 19.0576V19.6366H15.2436V20.2956H16.1956V20.8486H15.2436V22.0646H14.5156V19.0576H16.4766Z" fill="white"/>
<path d="M12.8768 5.88672H11.1088C10.8006 5.88672 10.5508 6.13654 10.5508 6.44472V8.21272C10.5508 8.52089 10.8006 8.77072 11.1088 8.77072H12.8768C13.185 8.77072 13.4348 8.52089 13.4348 8.21272V6.44472C13.4348 6.13654 13.185 5.88672 12.8768 5.88672Z" fill="#FF3E4C"/>
</svg>
