<svg width="100" height="100" viewBox="0 0 100 100" fill="none" xmlns="http://www.w3.org/2000/svg">
<rect width="100" height="100" rx="30" fill="#FAFAFA"/>
<g opacity="0.25" filter="url(#filter0_f_755_2315)">
<rect x="15.0664" y="50" width="68.1223" height="42.5764" rx="21.2882" fill="url(#paint0_linear_755_2315)"/>
</g>
<rect x="13" y="13" width="73.7991" height="73.7991" rx="30" fill="url(#paint1_linear_755_2315)"/>
<g clip-path="url(#clip0_755_2315)" filter="url(#filter1_i_755_2315)">
<path d="M68.1937 61.3687C68.1937 62.0438 68.0437 62.7375 67.725 63.4125C67.4062 64.0875 66.9938 64.725 66.45 65.325C65.5312 66.3375 64.5187 67.0688 63.375 67.5375C62.25 68.0063 61.0313 68.25 59.7188 68.25C57.8063 68.25 55.7625 67.8 53.6062 66.8813C51.45 65.9625 49.2938 64.725 47.1562 63.1688C45 61.5938 42.9562 59.85 41.0062 57.9187C39.075 55.9688 37.3312 53.925 35.775 51.7875C34.2375 49.65 33 47.5125 32.1 45.3938C31.2 43.2563 30.75 41.2125 30.75 39.2625C30.75 37.9875 30.975 36.7688 31.425 35.6438C31.875 34.5 32.5875 33.45 33.5812 32.5125C34.7812 31.3313 36.0938 30.75 37.4813 30.75C38.0063 30.75 38.5312 30.8625 39 31.0875C39.4875 31.3125 39.9188 31.65 40.2563 32.1375L44.6063 38.2688C44.9438 38.7375 45.1875 39.1687 45.3562 39.5813C45.525 39.975 45.6188 40.3688 45.6188 40.725C45.6188 41.175 45.4875 41.625 45.225 42.0562C44.9813 42.4875 44.625 42.9375 44.175 43.3875L42.75 44.8687C42.5437 45.075 42.45 45.3188 42.45 45.6188C42.45 45.7688 42.4688 45.9 42.5063 46.05C42.5625 46.2 42.6188 46.3125 42.6563 46.425C42.9938 47.0437 43.575 47.85 44.4 48.825C45.2437 49.8 46.1437 50.7938 47.1187 51.7875C48.1312 52.7812 49.1062 53.7 50.1 54.5437C51.075 55.3687 51.8812 55.9312 52.5187 56.2687C52.6125 56.3062 52.725 56.3625 52.8563 56.4187C53.0063 56.475 53.1562 56.4937 53.325 56.4937C53.6437 56.4937 53.8875 56.3813 54.0938 56.175L55.5187 54.7688C55.9875 54.3 56.4375 53.9438 56.8688 53.7188C57.3 53.4562 57.7312 53.325 58.2 53.325C58.5562 53.325 58.9312 53.4 59.3438 53.5688C59.7563 53.7375 60.1875 53.9813 60.6563 54.3L66.8625 58.7062C67.35 59.0437 67.6875 59.4375 67.8937 59.9062C68.0812 60.375 68.1937 60.8438 68.1937 61.3687Z" fill="#FAFAFA"/>
<path d="M56.0625 38.25H65.4375" stroke="#FAFAFA" stroke-width="2.8125" stroke-linecap="round" stroke-linejoin="round"/>
<path d="M60.75 42.9375V33.5625" stroke="#FAFAFA" stroke-width="2.8125" stroke-linecap="round" stroke-linejoin="round"/>
</g>
<defs>
<filter id="filter0_f_755_2315" x="9.60641" y="44.54" width="79.0411" height="53.4967" filterUnits="userSpaceOnUse" color-interpolation-filters="sRGB">
<feFlood flood-opacity="0" result="BackgroundImageFix"/>
<feBlend mode="normal" in="SourceGraphic" in2="BackgroundImageFix" result="shape"/>
<feGaussianBlur stdDeviation="2.73" result="effect1_foregroundBlur_755_2315"/>
</filter>
<filter id="filter1_i_755_2315" x="27" y="27" width="45" height="45.5" filterUnits="userSpaceOnUse" color-interpolation-filters="sRGB">
<feFlood flood-opacity="0" result="BackgroundImageFix"/>
<feBlend mode="normal" in="SourceGraphic" in2="BackgroundImageFix" result="shape"/>
<feColorMatrix in="SourceAlpha" type="matrix" values="0 0 0 0 0 0 0 0 0 0 0 0 0 0 0 0 0 0 127 0" result="hardAlpha"/>
<feOffset dy="0.5"/>
<feGaussianBlur stdDeviation="1.25"/>
<feComposite in2="hardAlpha" operator="arithmetic" k2="-1" k3="1"/>
<feColorMatrix type="matrix" values="0 0 0 0 0 0 0 0 0 0 0 0 0 0 0 0 0 0 0.1 0"/>
<feBlend mode="normal" in2="shape" result="effect1_innerShadow_755_2315"/>
</filter>
<linearGradient id="paint0_linear_755_2315" x1="53.8356" y1="93.8462" x2="39.95" y2="44.9043" gradientUnits="userSpaceOnUse">
<stop/>
<stop offset="1" stop-color="#323232"/>
</linearGradient>
<linearGradient id="paint1_linear_755_2315" x1="55" y1="89" x2="20.5" y2="13" gradientUnits="userSpaceOnUse">
<stop stop-color="#2A2C36"/>
<stop offset="1" stop-color="#323232"/>
</linearGradient>
<clipPath id="clip0_755_2315">
<rect width="45" height="45" fill="white" transform="translate(27 27)"/>
</clipPath>
</defs>
</svg>
