<svg width="20" height="20" viewBox="0 0 20 20" fill="none" xmlns="http://www.w3.org/2000/svg">
<rect width="20" height="20" rx="4" fill="#70B049"/>
<path d="M16.6463 14.22C16.6463 14.46 16.593 14.7067 16.4797 14.9467C16.3663 15.1867 16.2197 15.4134 16.0263 15.6267C15.6997 15.9867 15.3397 16.2467 14.933 16.4134C14.533 16.58 14.0997 16.6667 13.633 16.6667C12.953 16.6667 12.2263 16.5067 11.4597 16.18C10.693 15.8534 9.92634 15.4134 9.16634 14.86C8.39967 14.3 7.67301 13.68 6.97967 12.9934C6.29301 12.3 5.67301 11.5734 5.11967 10.8134C4.57301 10.0534 4.13301 9.29337 3.81301 8.54004C3.49301 7.78004 3.33301 7.05337 3.33301 6.36004C3.33301 5.90671 3.41301 5.47337 3.57301 5.07337C3.73301 4.66671 3.98634 4.29337 4.33967 3.96004C4.76634 3.54004 5.23301 3.33337 5.72634 3.33337C5.91301 3.33337 6.09967 3.37337 6.26634 3.45337C6.43967 3.53337 6.59301 3.65337 6.71301 3.82671L8.25967 6.00671C8.37967 6.17337 8.46634 6.32671 8.52634 6.47337C8.58634 6.61337 8.61967 6.75337 8.61967 6.88004C8.61967 7.04004 8.57301 7.20004 8.47967 7.35337C8.39301 7.50671 8.26634 7.66671 8.10634 7.82671L7.59967 8.35337C7.52634 8.42671 7.49301 8.51337 7.49301 8.62004C7.49301 8.67337 7.49967 8.72004 7.51301 8.77337C7.53301 8.82671 7.55301 8.86671 7.56634 8.90671C7.68634 9.12671 7.89301 9.41337 8.18634 9.76004C8.48634 10.1067 8.80634 10.46 9.15301 10.8134C9.51301 11.1667 9.85967 11.4934 10.213 11.7934C10.5597 12.0867 10.8463 12.2867 11.073 12.4067C11.1063 12.42 11.1463 12.44 11.193 12.46C11.2463 12.48 11.2997 12.4867 11.3597 12.4867C11.473 12.4867 11.5597 12.4467 11.633 12.3734L12.1397 11.8734C12.3063 11.7067 12.4663 11.58 12.6197 11.5C12.773 11.4067 12.9263 11.36 13.093 11.36C13.2197 11.36 13.353 11.3867 13.4997 11.4467C13.6463 11.5067 13.7997 11.5934 13.9663 11.7067L16.173 13.2734C16.3463 13.3934 16.4663 13.5334 16.5397 13.7C16.6063 13.8667 16.6463 14.0334 16.6463 14.22Z" fill="white"/>
</svg>
