<svg width="100" height="100" viewBox="0 0 100 100" fill="none" xmlns="http://www.w3.org/2000/svg">
<rect width="100" height="100" rx="30" fill="#FAFAFA"/>
<g opacity="0.25" filter="url(#filter0_f_755_2290)">
<rect x="15.0664" y="50" width="68.1223" height="42.5764" rx="21.2882" fill="url(#paint0_linear_755_2290)"/>
</g>
<rect x="13" y="13" width="73.7991" height="73.7991" rx="30" fill="url(#paint1_linear_755_2290)"/>
<g clip-path="url(#clip0_755_2290)" filter="url(#filter1_i_755_2290)">
<path d="M27 72L30.2258 60.0058C27.6243 55.3334 26.7977 49.8812 27.8979 44.6495C28.998 39.4179 31.951 34.7578 36.215 31.5243C40.4789 28.2909 45.7679 26.701 51.1112 27.0465C56.4546 27.3919 61.494 29.6494 65.3046 33.4049C69.1153 37.1603 71.4416 42.1617 71.8567 47.4913C72.2719 52.8209 70.7479 58.1212 67.5646 62.4196C64.3812 66.718 59.7519 69.7261 54.5263 70.892C49.3006 72.0579 43.8291 71.3034 39.1157 68.7669L27 72ZM39.6999 64.2786L40.4492 64.7223C43.8632 66.7425 47.8507 67.5785 51.7903 67.1C55.7299 66.6215 59.4003 64.8554 62.2296 62.0769C65.0588 59.2985 66.8879 55.6637 67.4319 51.739C67.9759 47.8143 67.2041 43.8202 65.237 40.3791C63.2698 36.938 60.2177 34.2432 56.5563 32.7147C52.8948 31.1862 48.8298 30.9097 44.9946 31.9285C41.1594 32.9473 37.7694 35.204 35.353 38.347C32.9367 41.49 31.6296 45.3427 31.6355 49.3048C31.6323 52.59 32.5423 55.8116 34.2644 58.6111L34.7343 59.3845L32.9309 66.079L39.6999 64.2786Z" fill="white"/>
<path fill-rule="evenodd" clip-rule="evenodd" d="M57.8882 52.3845C57.4489 52.0308 56.9346 51.7819 56.3844 51.6566C55.8342 51.5314 55.2626 51.5332 54.7132 51.6618C53.8877 52.0042 53.3543 53.2974 52.8209 53.944C52.7085 54.099 52.5432 54.2078 52.3561 54.2498C52.1691 54.2918 51.9731 54.2642 51.8049 54.1722C48.7828 52.9905 46.2496 50.8234 44.6168 48.023C44.4775 47.8482 44.4116 47.6264 44.4329 47.4041C44.4542 47.1818 44.5611 46.9764 44.7311 46.8312C45.326 46.2432 45.7628 45.515 46.0011 44.7138C46.054 43.8301 45.8512 42.9499 45.4169 42.178C45.0811 41.096 44.4421 40.1325 43.5754 39.4014C43.1284 39.2006 42.6327 39.1333 42.1482 39.2076C41.6637 39.2818 41.2111 39.4944 40.8449 39.8198C40.2092 40.3673 39.7047 41.0502 39.3684 41.8182C39.0321 42.5862 38.8727 43.4197 38.9018 44.2574C38.9038 44.7278 38.9635 45.1962 39.0796 45.652C39.3745 46.7474 39.828 47.7939 40.4258 48.7584C40.8571 49.4972 41.3277 50.2125 41.8355 50.9011C43.4859 53.163 45.5605 55.0834 47.9442 56.5559C49.1403 57.3041 50.4187 57.9125 51.7541 58.369C53.1414 58.9967 54.673 59.2377 56.1864 59.0663C57.0487 58.936 57.8657 58.5961 58.5655 58.0766C59.2653 57.557 59.8264 56.8737 60.1996 56.0868C60.4188 55.6114 60.4854 55.0799 60.3901 54.5653C60.1615 53.5129 58.7518 52.8917 57.8882 52.3845Z" fill="white"/>
</g>
<defs>
<filter id="filter0_f_755_2290" x="9.60641" y="44.54" width="79.0411" height="53.4967" filterUnits="userSpaceOnUse" color-interpolation-filters="sRGB">
<feFlood flood-opacity="0" result="BackgroundImageFix"/>
<feBlend mode="normal" in="SourceGraphic" in2="BackgroundImageFix" result="shape"/>
<feGaussianBlur stdDeviation="2.73" result="effect1_foregroundBlur_755_2290"/>
</filter>
<filter id="filter1_i_755_2290" x="27" y="27" width="45" height="45.5" filterUnits="userSpaceOnUse" color-interpolation-filters="sRGB">
<feFlood flood-opacity="0" result="BackgroundImageFix"/>
<feBlend mode="normal" in="SourceGraphic" in2="BackgroundImageFix" result="shape"/>
<feColorMatrix in="SourceAlpha" type="matrix" values="0 0 0 0 0 0 0 0 0 0 0 0 0 0 0 0 0 0 127 0" result="hardAlpha"/>
<feOffset dy="0.5"/>
<feGaussianBlur stdDeviation="1.25"/>
<feComposite in2="hardAlpha" operator="arithmetic" k2="-1" k3="1"/>
<feColorMatrix type="matrix" values="0 0 0 0 0 0 0 0 0 0 0 0 0 0 0 0 0 0 0.1 0"/>
<feBlend mode="normal" in2="shape" result="effect1_innerShadow_755_2290"/>
</filter>
<linearGradient id="paint0_linear_755_2290" x1="53.8356" y1="93.8462" x2="39.95" y2="44.9043" gradientUnits="userSpaceOnUse">
<stop stop-color="#00D95F"/>
<stop offset="1" stop-color="#07FF74"/>
</linearGradient>
<linearGradient id="paint1_linear_755_2290" x1="55" y1="89" x2="20.5" y2="13" gradientUnits="userSpaceOnUse">
<stop stop-color="#00D95F"/>
<stop offset="1" stop-color="#07FF74"/>
</linearGradient>
<clipPath id="clip0_755_2290">
<rect width="45" height="45" fill="white" transform="translate(27 27)"/>
</clipPath>
</defs>
</svg>
