<svg width="166" height="70" viewBox="0 0 166 70" fill="none" xmlns="http://www.w3.org/2000/svg">
<g clip-path="url(#clip0_8_823)">
<path fill-rule="evenodd" clip-rule="evenodd" d="M11.4625 0.899775C11.2501 7.11247 12.554 11.4989 14.6064 15.2512C16.3137 18.3727 18.5163 21.0447 20.9967 24.0538L20.9991 24.0567C21.7267 24.9392 22.4784 25.8512 23.2482 26.8117C26.5908 30.9819 30.06 35.8391 32.6727 42.6681C33.1594 43.9401 33.615 45.2768 34.0342 46.6865C34.7802 39.3346 35.8619 33.7364 37.0499 29.1344L37.0343 29.1314C37.7178 25.4859 37.1557 23.4908 36.2536 22.1265C35.294 20.6753 33.8074 19.6627 31.7666 18.2727L31.4983 18.09C29.4249 16.6763 26.9737 14.9433 25.0983 12.1124C23.2031 9.25148 22.006 5.4524 22 0.0404053C17.6802 0.113705 14.248 0.319878 11.4625 0.899775ZM32.7926 34.3076C28.9011 32.4122 27.8429 28.0619 30.4291 24.5909C34.3207 26.4862 35.3788 30.8365 32.7926 34.3076ZM23.2242 23.3496C19.9376 20.5326 20.0127 16.0561 23.3919 13.351C26.6785 16.1679 26.6034 20.6445 23.2242 23.3496ZM14.0587 11.6533C12.8803 7.48816 15.4202 3.80123 19.7318 3.41826C20.9102 7.58334 18.3703 11.2703 14.0587 11.6533Z" fill="url(#paint0_linear_8_823)"/>
<path fill-rule="evenodd" clip-rule="evenodd" d="M7.43993 2.22266C7.44341 8.40805 8.86675 13.0931 11.097 17.1707C13.0042 20.6575 15.526 23.7134 18.0528 26.7753L18.0535 26.7763C18.7484 27.6183 19.4441 28.4613 20.127 29.3133C20.7992 30.1519 21.4699 31.011 22.1324 31.9026C16.41 27.4732 9.03485 25.0016 0.00866699 25C0.0692018 14.1249 0.551457 8.23534 4.39338 4.39342C5.28606 3.50073 6.28929 2.78943 7.43993 2.22266ZM11.3292 23.258C11.2962 18.9296 7.82682 16.0997 3.58006 16.9373C3.613 21.2657 7.08238 24.0956 11.3292 23.258Z" fill="url(#paint1_linear_8_823)"/>
<path fill-rule="evenodd" clip-rule="evenodd" d="M5.96367e-05 29C9.54606e-09 29.3293 0 29.6627 0 30V40C0 41.4013 0 42.7332 0.00427438 44H0.065094C3.57726 43.9998 11.6664 43.9996 18.9249 47.1669C22.6136 48.7765 26.1611 51.2331 28.7798 54.9791C30.9774 58.1227 32.4515 62.0755 32.8748 67H32.9439C32.5318 56.1445 29.8516 46.9663 24.9017 40.3856C19.5646 33.2901 11.4323 29 5.96367e-05 29ZM22.1198 45.4237C23.0509 41.1964 20.2982 37.6655 15.9715 37.5371C15.0405 41.7643 17.7932 45.2953 22.1198 45.4237ZM10.7191 43.0591C12.4599 39.0961 10.452 35.0944 6.2343 34.1212C4.49341 38.0843 6.5013 42.0859 10.7191 43.0591Z" fill="url(#paint2_linear_8_823)"/>
<path fill-rule="evenodd" clip-rule="evenodd" d="M0.0404663 48C0.192981 56.9883 0.920742 62.1339 4.39343 65.6066C8.68203 69.8952 15.5221 69.9975 29 70C29 64.3485 27.5931 60.2629 25.5014 57.2709C23.4014 54.2669 20.5114 52.2234 17.3251 50.8331C10.9034 48.0308 3.57962 48.0002 0.0404663 48ZM13.1403 52.2771C9.24919 50.3809 5.17129 52.229 4.03212 56.405C7.92329 58.3012 12.0011 56.453 13.1403 52.2771ZM19.8062 55.4408C15.4906 55.7764 12.9103 59.4352 14.0429 63.613C18.3584 63.2774 20.9387 59.6186 19.8062 55.4408Z" fill="url(#paint3_linear_8_823)"/>
<path fill-rule="evenodd" clip-rule="evenodd" d="M41 70C54.4779 69.9975 61.318 69.8952 65.6066 65.6066C69.0793 62.1339 69.8071 56.9883 69.9596 48C66.4204 48.0002 59.0966 48.0308 52.6749 50.8331C49.4886 52.2234 46.5986 54.2669 44.4986 57.2709C42.4069 60.2629 41 64.3485 41 70ZM56.7091 52.2771C60.6003 50.3809 64.6782 52.229 65.8174 56.405C61.9262 58.3012 57.8483 56.453 56.7091 52.2771ZM50.0428 55.4408C54.3584 55.7764 56.9387 59.4352 55.8061 63.613C51.4905 63.2774 48.9102 59.6186 50.0428 55.4408Z" fill="url(#paint4_linear_8_823)"/>
<path fill-rule="evenodd" clip-rule="evenodd" d="M69.9957 44C70 42.7332 70 41.4013 70 40V30C70 29.6627 70 29.3293 69.9999 29C58.5677 29 50.4354 33.2901 45.0983 40.3856C40.1484 46.9663 37.4683 56.1445 37.0562 67H37.1253C37.5486 62.0755 39.0226 58.1227 41.2202 54.9791C43.8389 51.2331 47.3864 48.7765 51.0751 47.1669C58.3336 43.9996 66.4228 43.9998 69.9349 44H69.9957ZM47.9716 45.4237C47.0405 41.1964 49.7932 37.6655 54.1199 37.5371C55.0509 41.7643 52.2982 45.2953 47.9716 45.4237ZM59.3721 43.0591C57.6312 39.0961 59.6391 35.0944 63.8569 34.1212C65.5977 38.0843 63.5899 42.0859 59.3721 43.0591Z" fill="url(#paint5_linear_8_823)"/>
<path fill-rule="evenodd" clip-rule="evenodd" d="M69.9913 25C69.9308 14.1249 69.4485 8.23534 65.6066 4.39342C64.7139 3.50073 63.7107 2.78943 62.5601 2.22266C62.5566 8.40805 61.1332 13.0931 58.903 17.1707C56.9958 20.6575 54.4737 23.7137 51.9469 26.7757L51.9442 26.7791L51.9433 26.7802C51.2494 27.621 50.5549 28.4625 49.873 29.3133C49.2008 30.1519 48.5301 31.011 47.8676 31.9026C53.59 27.4732 60.9651 25.0016 69.9913 25ZM58.5801 23.258C58.6131 18.9296 62.0824 16.0997 66.3292 16.9373C66.2962 21.2657 62.8269 24.0956 58.5801 23.258Z" fill="url(#paint6_linear_8_823)"/>
<path fill-rule="evenodd" clip-rule="evenodd" d="M58.5375 0.899774C55.752 0.319877 52.3198 0.113705 48 0.0404053C47.9943 8.76468 46.1534 14.0615 44.055 20.099L44.0547 20.1C43.5134 21.6575 42.9548 23.2649 42.4062 24.9927C41.2638 28.5914 40.1124 32.8368 39.1675 38.4296C41.4619 33.7331 44.1453 30.0635 46.7518 26.8117C47.5225 25.8501 48.2747 24.9376 49.003 24.0541C51.4834 21.045 53.6863 18.3727 55.3936 15.2512C57.446 11.4989 58.7499 7.11247 58.5375 0.899774ZM49.1853 16.9557C47.6125 12.923 49.7868 9.0092 54.0417 8.21407C55.6145 12.2468 53.4402 16.1606 49.1853 16.9557Z" fill="url(#paint7_linear_8_823)"/>
<path fill-rule="evenodd" clip-rule="evenodd" d="M44 0.00427447C42.7332 0 41.4013 0 40 0H30C28.5987 0 27.2668 0 26 0.00427448C26.0006 4.81827 27.052 7.81872 28.433 9.90327C29.8388 12.0254 31.7001 13.3862 33.7517 14.785C33.8997 14.886 34.0501 14.9878 34.2024 15.091L34.2043 15.0923C36.0535 16.3448 38.1769 17.7831 39.5901 19.9203C39.6542 20.0172 39.7166 20.1151 39.7773 20.2141C39.9688 19.6559 40.1573 19.1119 40.3422 18.5785C42.3991 12.644 43.9994 8.02676 44 0.00427447ZM36.9432 12.2279C32.8375 10.8569 31.2203 6.682 33.3312 2.90301C37.4369 4.274 39.0541 8.44889 36.9432 12.2279Z" fill="url(#paint8_linear_8_823)"/>
<path d="M86.7014 32.083C84.986 32.083 84 31.0834 84 29.2465V14.5644C84 12.8355 84.9455 11.917 86.7014 11.917C87.7414 11.917 88.5384 12.3897 89.3623 13.4838L95.9672 22.3579H96.0753V14.7535C96.0753 12.9165 97.0748 11.917 98.7767 11.917C100.492 11.917 101.478 12.9165 101.478 14.7535V29.4356C101.478 31.151 100.546 32.083 98.8442 32.083C97.7501 32.083 96.9802 31.6237 96.1698 30.5162L89.5109 21.48H89.4028V29.2465C89.4028 31.0834 88.4033 32.083 86.7014 32.083Z" fill="#294456"/>
<path d="M112.77 32.083C107.624 32.083 104.179 29.2465 104.179 24.8027V14.9155C104.179 12.9976 105.22 11.917 107.043 11.917C108.866 11.917 109.906 12.9976 109.906 14.9155V24.1679C109.906 26.2209 110.919 27.342 112.77 27.342C114.62 27.342 115.633 26.2209 115.633 24.1679V14.9155C115.633 12.9976 116.673 11.917 118.497 11.917C120.32 11.917 121.36 12.9976 121.36 14.9155V24.8027C121.36 29.2465 117.916 32.083 112.77 32.083Z" fill="#294456"/>
<path d="M131.315 32.0829C129.492 32.0829 128.452 31.0023 128.452 29.0843V16.8199H125.575C124.062 16.8199 123.049 15.996 123.049 14.5373C123.049 13.0785 124.035 12.2546 125.575 12.2546H137.056C138.595 12.2546 139.581 13.0785 139.581 14.5373C139.581 15.996 138.568 16.8199 137.056 16.8199H134.179V29.0843C134.179 31.0023 133.139 32.0829 131.315 32.0829Z" fill="#294456"/>
<path d="M144.133 32.0829C142.31 32.0829 141.27 31.0023 141.27 29.0843V15.2531C141.27 13.3351 142.31 12.2546 144.133 12.2546H149.928C155.128 12.2546 157.802 14.6993 157.802 18.873C157.802 21.0341 156.884 23.0737 155.033 24.1542L157.073 27.504C157.573 28.3414 157.681 28.7872 157.681 29.4625C157.681 30.9888 156.492 32.0829 154.831 32.0829C153.426 32.0829 152.859 31.5831 151.846 29.7867L149.279 25.2078H146.997V29.0843C146.997 31.0023 145.957 32.0829 144.133 32.0829ZM146.997 21.4258H149.36C150.968 21.4258 151.954 20.4398 151.954 18.9676C151.954 17.5223 150.914 16.4823 149.374 16.4823H146.997V21.4258Z" fill="#294456"/>
<path d="M162.989 32.083C161.166 32.083 160.126 31.0024 160.126 29.0844V14.9155C160.126 12.9976 161.166 11.917 162.989 11.917C164.812 11.917 165.853 12.9976 165.853 14.9155V29.0844C165.853 31.0024 164.812 32.083 162.989 32.083Z" fill="#294456"/>
<path d="M86.8635 57.7453C85.04 57.7453 84 56.6647 84 54.7467V40.9156C84 38.9976 85.04 37.917 86.8635 37.917C88.6869 37.917 89.727 38.9976 89.727 40.9156V53.1799H95.1163C96.6291 53.1799 97.6421 54.0038 97.6421 55.4626C97.6421 56.9214 96.6561 57.7453 95.1163 57.7453H86.8635Z" fill="#294456"/>
<path d="M102.045 58.083C100.222 58.083 99.1279 57.0429 99.1279 55.314C99.1279 54.8143 99.2764 54.0849 99.5331 53.396L103.896 41.3478C104.733 38.984 106.152 37.917 108.434 37.917C110.879 37.917 112.284 38.9435 113.162 41.3478L117.565 53.396C117.835 54.1389 117.943 54.6792 117.943 55.3005C117.943 56.9214 116.741 58.083 115.08 58.083C113.391 58.083 112.513 57.3131 112.027 55.4221L111.689 54.0984H105.341L105.003 55.3275C104.463 57.2861 103.599 58.083 102.045 58.083ZM106.422 49.8302H110.487L108.461 42.7525H108.353L106.422 49.8302Z" fill="#294456"/>
<path d="M123.116 57.7452C121.293 57.7452 120.253 56.6646 120.253 54.7466V41.2531C120.253 39.3351 121.293 38.2546 123.116 38.2546H129.829C133.814 38.2546 136.151 40.078 136.151 43.1171C136.151 45.3593 134.449 47.0476 132.193 47.3313V47.4393C134.827 47.5069 137.029 49.4924 137.029 52.0722C137.029 55.4895 134.327 57.7452 130.153 57.7452H123.116ZM125.98 46.0616H128.195C129.667 46.0616 130.586 45.2917 130.586 44.1166C130.586 42.9145 129.721 42.1851 128.276 42.1851H125.98V46.0616ZM125.98 53.8147H128.425C130.194 53.8147 131.207 53.0177 131.207 51.5455C131.207 50.1542 130.18 49.3438 128.465 49.3438H125.98V53.8147Z" fill="#294456"/>
</g>
<defs>
<linearGradient id="paint0_linear_8_823" x1="2.14328e-05" y1="70" x2="70" y2="-4.30979e-05" gradientUnits="userSpaceOnUse">
<stop stop-color="#4FBB43"/>
<stop offset="1" stop-color="#B2E131"/>
</linearGradient>
<linearGradient id="paint1_linear_8_823" x1="-2.60478e-05" y1="70" x2="70" y2="3.70163e-06" gradientUnits="userSpaceOnUse">
<stop stop-color="#4FBB43"/>
<stop offset="1" stop-color="#B2E131"/>
</linearGradient>
<linearGradient id="paint2_linear_8_823" x1="-3.12924e-06" y1="70" x2="70" y2="-9.78189e-06" gradientUnits="userSpaceOnUse">
<stop stop-color="#4FBB43"/>
<stop offset="1" stop-color="#B2E131"/>
</linearGradient>
<linearGradient id="paint3_linear_8_823" x1="2.50025e-05" y1="70" x2="70" y2="-6.37237e-06" gradientUnits="userSpaceOnUse">
<stop stop-color="#4FBB43"/>
<stop offset="1" stop-color="#B2E131"/>
</linearGradient>
<linearGradient id="paint4_linear_8_823" x1="-6.30888e-06" y1="70" x2="70" y2="-1.13818e-05" gradientUnits="userSpaceOnUse">
<stop stop-color="#4FBB43"/>
<stop offset="1" stop-color="#B2E131"/>
</linearGradient>
<linearGradient id="paint5_linear_8_823" x1="5.66685e-06" y1="70" x2="70" y2="-9.59194e-06" gradientUnits="userSpaceOnUse">
<stop stop-color="#4FBB43"/>
<stop offset="1" stop-color="#B2E131"/>
</linearGradient>
<linearGradient id="paint6_linear_8_823" x1="4.60745e-06" y1="70" x2="70" y2="-4.99187e-06" gradientUnits="userSpaceOnUse">
<stop stop-color="#4FBB43"/>
<stop offset="1" stop-color="#B2E131"/>
</linearGradient>
<linearGradient id="paint7_linear_8_823" x1="-1.44261e-05" y1="70" x2="70" y2="-3.3235e-05" gradientUnits="userSpaceOnUse">
<stop stop-color="#4FBB43"/>
<stop offset="1" stop-color="#B2E131"/>
</linearGradient>
<linearGradient id="paint8_linear_8_823" x1="4.82873e-07" y1="70" x2="70" y2="-6.82974e-06" gradientUnits="userSpaceOnUse">
<stop stop-color="#4FBB43"/>
<stop offset="1" stop-color="#B2E131"/>
</linearGradient>
<clipPath id="clip0_8_823">
<rect width="166" height="70" fill="white"/>
</clipPath>
</defs>
</svg>
