<svg width="210" height="40" viewBox="0 0 210 40" fill="none" xmlns="http://www.w3.org/2000/svg">
<g clip-path="url(#clip0_1_1840)">
<path fill-rule="evenodd" clip-rule="evenodd" d="M6.54995 0.514261C6.42859 4.06438 7.17371 6.57089 8.34649 8.71505C9.3221 10.4988 10.5807 12.0256 11.9981 13.7451L11.9995 13.7468C12.4152 14.2511 12.8448 14.7722 13.2846 15.3211C15.1946 17.7041 17.1771 20.4795 18.6701 24.3819C18.9482 25.1088 19.2085 25.8725 19.4481 26.6781C19.8744 22.477 20.4925 19.278 21.1713 16.6483L21.1624 16.6466C21.553 14.5634 21.2318 13.4234 20.7163 12.6439C20.168 11.8145 19.3185 11.236 18.1523 10.4417L17.999 10.3372C16.8142 9.52939 15.4135 8.53912 14.3419 6.92143C13.2589 5.28666 12.5748 3.11575 12.5714 0.0231934C10.103 0.0650788 8.14168 0.182891 6.54995 0.514261ZM18.7386 19.6044C16.5149 18.5213 15.9102 16.0354 17.388 14.052C19.6118 15.1351 20.2164 17.621 18.7386 19.6044ZM13.271 13.3428C11.3929 11.733 11.4359 9.17501 13.3668 7.62922C15.2449 9.23891 15.2019 11.797 13.271 13.3428ZM8.0335 6.65911C7.36013 4.27905 8.81154 2.17224 11.2753 1.9534C11.9486 4.33344 10.4973 6.44026 8.0335 6.65911Z" fill="url(#paint0_linear_1_1840)"/>
<path fill-rule="evenodd" clip-rule="evenodd" d="M4.25138 1.27002C4.25337 4.80453 5.0667 7.48173 6.34113 9.81175C7.43095 11.8043 8.87196 13.5504 10.3158 15.3001C10.7129 15.7812 11.1109 16.2635 11.5012 16.7504C11.8852 17.2296 12.2685 17.7205 12.6471 18.2299C9.37712 15.6989 5.16276 14.2866 0.00494385 14.2856C0.0395352 8.0713 0.31511 4.70584 2.51049 2.51045C3.0206 2.00035 3.59387 1.5939 4.25138 1.27002ZM6.47379 13.2903C6.45496 10.8168 4.47246 9.19975 2.04573 9.67839C2.06457 12.1518 4.04707 13.7688 6.47379 13.2903Z" fill="url(#paint1_linear_1_1840)"/>
<path fill-rule="evenodd" clip-rule="evenodd" d="M3.40781e-05 16.5715C5.45697e-09 16.7598 0 16.9502 0 17.143V22.8572C0 23.658 0 24.4191 0.0024425 25.143H0.0371966C2.04414 25.1429 6.66652 25.1428 10.8142 26.9526C12.9221 27.8724 14.9492 29.2762 16.4456 31.4168C17.7013 33.2131 18.5438 35.4718 18.7856 38.2858H18.8251C18.5896 32.0826 17.058 26.838 14.2296 23.0775C11.1798 19.023 6.53274 16.5715 3.40781e-05 16.5715ZM12.6399 25.9564C13.1719 23.5409 11.599 21.5232 9.12658 21.4499C8.59456 23.8654 10.1675 25.8831 12.6399 25.9564ZM6.12518 24.6053C7.11996 22.3408 5.9726 20.0541 3.56246 19.4979C2.56767 21.7625 3.71502 24.0492 6.12518 24.6053Z" fill="url(#paint2_linear_1_1840)"/>
<path fill-rule="evenodd" clip-rule="evenodd" d="M0.0231323 27.4285C0.110284 32.5647 0.526147 35.505 2.51054 37.4894C4.96117 39.94 8.86977 39.9985 16.5715 39.9999C16.5715 36.7705 15.7675 34.4358 14.5722 32.7261C13.3722 31.0096 11.7208 29.8419 9.90008 29.0474C6.23053 27.4461 2.0455 27.4286 0.0231323 27.4285ZM7.50878 29.8725C5.28526 28.789 2.95504 29.8451 2.30408 32.2314C4.5276 33.3149 6.85783 32.2588 7.50878 29.8725ZM11.3178 31.6804C8.8518 31.8721 7.37735 33.9629 8.02454 36.3502C10.4906 36.1585 11.965 34.0677 11.3178 31.6804Z" fill="url(#paint3_linear_1_1840)"/>
<path fill-rule="evenodd" clip-rule="evenodd" d="M23.4285 39.9999C31.1302 39.9985 35.0389 39.94 37.4894 37.4894C39.4739 35.505 39.8897 32.5647 39.9769 27.4285C37.9545 27.4286 33.7695 27.4461 30.0999 29.0474C28.2792 29.8419 26.6278 31.0096 25.4278 32.7261C24.2325 34.4358 23.4285 36.7705 23.4285 39.9999ZM32.4052 29.8725C34.6287 28.789 36.959 29.8451 37.6099 32.2314C35.3864 33.3149 33.0562 32.2588 32.4052 29.8725ZM28.5959 31.6804C31.0619 31.8721 32.5363 33.9629 31.8892 36.3502C29.4232 36.1585 27.9486 34.0677 28.5959 31.6804Z" fill="url(#paint4_linear_1_1840)"/>
<path fill-rule="evenodd" clip-rule="evenodd" d="M39.9975 25.143C40 24.4191 40 23.658 40 22.8572V17.143C40 16.9502 40 16.7598 40 16.5715C33.4672 16.5715 28.8202 19.023 25.7704 23.0775C22.942 26.838 21.4104 32.0826 21.175 38.2858H21.2144C21.4563 35.4718 22.2987 33.2131 23.5544 31.4168C25.0508 29.2762 27.0779 27.8724 29.1858 26.9526C33.3334 25.1428 37.9559 25.1429 39.9628 25.143H39.9975ZM27.4123 25.9564C26.8803 23.5409 28.4532 21.5232 30.9257 21.4499C31.4577 23.8654 29.8847 25.8831 27.4123 25.9564ZM33.9269 24.6053C32.9321 22.3408 34.0794 20.0541 36.4897 19.4979C37.4844 21.7625 36.3371 24.0492 33.9269 24.6053Z" fill="url(#paint5_linear_1_1840)"/>
<path fill-rule="evenodd" clip-rule="evenodd" d="M39.995 14.2856C39.9605 8.0713 39.6849 4.70584 37.4895 2.51045C36.9794 2.00035 36.4061 1.5939 35.7486 1.27002C35.7467 4.80453 34.9332 7.48173 33.6589 9.81175C32.569 11.8043 31.1279 13.5506 29.684 15.3003L29.6825 15.3023C29.2859 15.7827 28.8886 16.2643 28.4989 16.7504C28.1148 17.2296 27.7315 17.7205 27.3529 18.2299C30.6229 15.6989 34.8372 14.2866 39.995 14.2856ZM33.4743 13.2903C33.4932 10.8168 35.4757 9.19975 37.9025 9.67839C37.8836 12.1518 35.9011 13.7688 33.4743 13.2903Z" fill="url(#paint6_linear_1_1840)"/>
<path fill-rule="evenodd" clip-rule="evenodd" d="M33.45 0.514261C31.8584 0.182892 29.897 0.0650788 27.4286 0.0231934C27.4254 5.0085 26.3734 8.03524 25.1744 11.4852C24.865 12.3753 24.5456 13.2943 24.2321 14.2816C23.5794 16.338 22.9214 18.764 22.3815 21.9599C23.6925 19.2762 25.2259 17.1793 26.7154 15.3211C27.1557 14.7716 27.5856 14.2501 28.0017 13.7453C29.4191 12.0259 30.6779 10.4988 31.6535 8.71505C32.8262 6.57089 33.5715 4.06437 33.45 0.514261ZM28.1059 9.68905C27.2071 7.38465 28.4496 5.14822 30.881 4.69385C31.7798 6.99826 30.5374 9.2347 28.1059 9.68905Z" fill="url(#paint7_linear_1_1840)"/>
<path fill-rule="evenodd" clip-rule="evenodd" d="M25.1429 0.00244256C24.419 0 23.6579 0 22.8571 0H17.1429C16.3421 0 15.581 0 14.8571 0.00244257C14.8575 2.7533 15.4583 4.46784 16.2474 5.65901C17.0508 6.87168 18.1143 7.64928 19.2867 8.4486C19.3712 8.50627 19.4572 8.56448 19.5442 8.62342L19.5453 8.62417C20.602 9.33987 21.8155 10.1618 22.6229 11.383C22.6596 11.4384 22.6952 11.4943 22.7299 11.5509C22.8393 11.232 22.947 10.9211 23.0527 10.6163C24.2281 7.22511 25.1426 4.58672 25.1429 0.00244256ZM21.1104 6.98737C18.7642 6.20394 17.8402 3.81829 19.0465 1.65887C21.3926 2.44229 22.3167 4.82793 21.1104 6.98737Z" fill="url(#paint8_linear_1_1840)"/>
<path d="M60.0578 31.4863C58.1518 31.4863 57.0562 30.3756 57.0562 28.3346V12.0212C57.0562 10.1001 58.1068 9.07959 60.0578 9.07959C61.2133 9.07959 62.0988 9.60487 63.0143 10.8205L70.3531 20.6806H70.4732V12.2313C70.4732 10.1902 71.5838 9.07959 73.4748 9.07959C75.3808 9.07959 76.4763 10.1902 76.4763 12.2313V28.5447C76.4763 30.4507 75.4408 31.4863 73.5498 31.4863C72.3341 31.4863 71.4787 30.9759 70.5782 29.7454L63.1793 19.7052H63.0593V28.3346C63.0593 30.3756 61.9488 31.4863 60.0578 31.4863Z" fill="#294456"/>
<path d="M89.0228 31.4863C83.3049 31.4863 79.4779 28.3346 79.4779 23.397V12.4113C79.4779 10.2802 80.6335 9.07959 82.6596 9.07959C84.6856 9.07959 85.8411 10.2802 85.8411 12.4113V22.6917C85.8411 24.9728 86.9668 26.2185 89.0228 26.2185C91.0789 26.2185 92.2045 24.9728 92.2045 22.6917V12.4113C92.2045 10.2802 93.3601 9.07959 95.3861 9.07959C97.4122 9.07959 98.5678 10.2802 98.5678 12.4113V23.397C98.5678 28.3346 94.7408 31.4863 89.0228 31.4863Z" fill="#294456"/>
<path d="M109.629 31.4863C107.602 31.4863 106.447 30.2856 106.447 28.1545V14.5274H103.25C101.569 14.5274 100.444 13.612 100.444 11.9912C100.444 10.3703 101.539 9.45483 103.25 9.45483H116.007C117.718 9.45483 118.813 10.3703 118.813 11.9912C118.813 13.612 117.688 14.5274 116.007 14.5274H112.81V28.1545C112.81 30.2856 111.654 31.4863 109.629 31.4863Z" fill="#294456"/>
<path d="M123.871 31.4863C121.844 31.4863 120.689 30.2856 120.689 28.1545V12.7865C120.689 10.6555 121.844 9.45483 123.871 9.45483H130.309C136.088 9.45483 139.059 12.1712 139.059 16.8086C139.059 19.2099 138.038 21.4761 135.982 22.6766L138.249 26.3986C138.803 27.3291 138.923 27.8244 138.923 28.5748C138.923 30.2706 137.603 31.4863 135.757 31.4863C134.197 31.4863 133.566 30.931 132.44 28.935L129.589 23.8473H127.052V28.1545C127.052 30.2856 125.897 31.4863 123.871 31.4863ZM127.052 19.6451H129.679C131.464 19.6451 132.56 18.5495 132.56 16.9138C132.56 15.3079 131.404 14.1523 129.694 14.1523H127.052V19.6451Z" fill="#294456"/>
<path d="M144.822 31.4863C142.796 31.4863 141.64 30.2856 141.64 28.1545V12.4113C141.64 10.2802 142.796 9.07959 144.822 9.07959C146.848 9.07959 148.003 10.2802 148.003 12.4113V28.1545C148.003 30.2856 146.848 31.4863 144.822 31.4863Z" fill="#294456"/>
<path d="M154.187 31.111C152.161 31.111 151.006 29.9104 151.006 27.7793V12.4113C151.006 10.2802 152.161 9.07959 154.187 9.07959C156.212 9.07959 157.368 10.2802 157.368 12.4113V26.0384H163.357C165.038 26.0384 166.163 26.9538 166.163 28.5747C166.163 30.1956 165.068 31.111 163.357 31.111H154.187Z" fill="#294456"/>
<path d="M171.056 31.4863C169.029 31.4863 167.813 30.3306 167.813 28.4096C167.813 27.8544 167.979 27.0439 168.264 26.2785L173.111 12.8916C174.042 10.2652 175.618 9.07959 178.154 9.07959C180.87 9.07959 182.431 10.2202 183.407 12.8916L188.299 26.2785C188.6 27.1039 188.72 27.7043 188.72 28.3946C188.72 30.1956 187.384 31.4863 185.538 31.4863C183.662 31.4863 182.687 30.6308 182.147 28.5297L181.771 27.0589H174.718L174.342 28.4246C173.742 30.6008 172.781 31.4863 171.056 31.4863ZM175.918 22.3165H180.436L178.184 14.4524H178.064L175.918 22.3165Z" fill="#294456"/>
<path d="M194.468 31.1111C192.441 31.1111 191.286 29.9104 191.286 27.7793V12.7865C191.286 10.6555 192.441 9.45483 194.468 9.45483H201.927C206.353 9.45483 208.95 11.4809 208.95 14.8576C208.95 17.349 207.059 19.2249 204.553 19.5401V19.6601C207.479 19.7352 209.926 21.9413 209.926 24.8078C209.926 28.6048 206.924 31.1111 202.287 31.1111H194.468ZM197.649 18.1293H200.11C201.747 18.1293 202.767 17.2739 202.767 15.9682C202.767 14.6325 201.807 13.8221 200.201 13.8221H197.649V18.1293ZM197.649 26.7439H200.366C202.332 26.7439 203.458 25.8583 203.458 24.2225C203.458 22.6766 202.317 21.7762 200.411 21.7762H197.649V26.7439Z" fill="#294456"/>
</g>
<defs>
<linearGradient id="paint0_linear_1_1840" x1="-2.68424e-05" y1="40.0001" x2="40" y2="9.34038e-05" gradientUnits="userSpaceOnUse">
<stop stop-color="#4FBB43"/>
<stop offset="1" stop-color="#B2E131"/>
</linearGradient>
<linearGradient id="paint1_linear_1_1840" x1="-2.35141e-05" y1="39.9999" x2="40" y2="-5.4186e-05" gradientUnits="userSpaceOnUse">
<stop stop-color="#4FBB43"/>
<stop offset="1" stop-color="#B2E131"/>
</linearGradient>
<linearGradient id="paint2_linear_1_1840" x1="-2.57242e-06" y1="40.0001" x2="40" y2="9.67316e-05" gradientUnits="userSpaceOnUse">
<stop stop-color="#4FBB43"/>
<stop offset="1" stop-color="#B2E131"/>
</linearGradient>
<linearGradient id="paint3_linear_1_1840" x1="2.36043e-05" y1="39.9999" x2="40" y2="-8.19776e-05" gradientUnits="userSpaceOnUse">
<stop stop-color="#4FBB43"/>
<stop offset="1" stop-color="#B2E131"/>
</linearGradient>
<linearGradient id="paint4_linear_1_1840" x1="-2.80851e-05" y1="39.9999" x2="40" y2="-7.98173e-05" gradientUnits="userSpaceOnUse">
<stop stop-color="#4FBB43"/>
<stop offset="1" stop-color="#B2E131"/>
</linearGradient>
<linearGradient id="paint5_linear_1_1840" x1="-1.17072e-05" y1="40.0001" x2="40" y2="9.94586e-05" gradientUnits="userSpaceOnUse">
<stop stop-color="#4FBB43"/>
<stop offset="1" stop-color="#B2E131"/>
</linearGradient>
<linearGradient id="paint6_linear_1_1840" x1="1.67327e-05" y1="39.9999" x2="40" y2="-5.03293e-05" gradientUnits="userSpaceOnUse">
<stop stop-color="#4FBB43"/>
<stop offset="1" stop-color="#B2E131"/>
</linearGradient>
<linearGradient id="paint7_linear_1_1840" x1="2.16451e-05" y1="40.0001" x2="40" y2="8.93701e-05" gradientUnits="userSpaceOnUse">
<stop stop-color="#4FBB43"/>
<stop offset="1" stop-color="#B2E131"/>
</linearGradient>
<linearGradient id="paint8_linear_1_1840" x1="4.75956e-06" y1="40" x2="40" y2="5.10833e-06" gradientUnits="userSpaceOnUse">
<stop stop-color="#4FBB43"/>
<stop offset="1" stop-color="#B2E131"/>
</linearGradient>
<clipPath id="clip0_1_1840">
<rect width="210" height="40" fill="white"/>
</clipPath>
</defs>
</svg>
