<svg width="30" height="30" viewBox="0 0 30 30" fill="none" xmlns="http://www.w3.org/2000/svg">
<path d="M3 17.5C3 12.786 3 10.4289 4.46447 8.96447C5.92893 7.5 8.28595 7.5 13 7.5H18C22.714 7.5 25.0711 7.5 26.5355 8.96447C28 10.4289 28 12.786 28 17.5C28 22.214 28 24.5711 26.5355 26.0355C25.0711 27.5 22.714 27.5 18 27.5H13C8.28595 27.5 5.92893 27.5 4.46447 26.0355C3 24.5711 3 22.214 3 17.5Z" stroke="#294456" stroke-width="1.5"/>
<path d="M20.5 7.5C20.5 5.14298 20.5 3.96447 19.7678 3.23223C19.0355 2.5 17.857 2.5 15.5 2.5C13.143 2.5 11.9645 2.5 11.2322 3.23223C10.5 3.96447 10.5 5.14298 10.5 7.5" stroke="#294456" stroke-width="1.5"/>
<path d="M17.375 17.5H13.625M15.5 15.625V19.375" stroke="#294456" stroke-width="1.5" stroke-linecap="round"/>
<circle cx="15.5" cy="17.5" r="5" stroke="#294456" stroke-width="1.5"/>
</svg>
