<svg width="30" height="30" viewBox="0 0 30 30" fill="none" xmlns="http://www.w3.org/2000/svg">
<circle cx="11.248" cy="11.2501" r="2.5" stroke="#294456" stroke-width="1.5"/>
<path d="M16.248 18.7501C16.248 20.1308 16.248 21.2501 11.248 21.2501C6.24805 21.2501 6.24805 20.1308 6.24805 18.7501C6.24805 17.3694 8.48662 16.2501 11.248 16.2501C14.0095 16.2501 16.248 17.3694 16.248 18.7501Z" stroke="#294456" stroke-width="1.5"/>
<path d="M2.49805 15.0001C2.49805 10.2861 2.49805 7.92905 3.96251 6.46459C5.42698 5.00012 7.784 5.00012 12.498 5.00012H17.498C22.2121 5.00012 24.5691 5.00012 26.0336 6.46459C27.498 7.92905 27.498 10.2861 27.498 15.0001C27.498 19.7142 27.498 22.0712 26.0336 23.5357C24.5691 25.0001 22.2121 25.0001 17.498 25.0001H12.498C7.784 25.0001 5.42698 25.0001 3.96251 23.5357C2.49805 22.0712 2.49805 19.7142 2.49805 15.0001Z" stroke="#294456" stroke-width="1.5"/>
<path d="M23.748 15.0001H18.748" stroke="#294456" stroke-width="1.5" stroke-linecap="round"/>
<path d="M23.748 11.2501H17.498" stroke="#294456" stroke-width="1.5" stroke-linecap="round"/>
<path d="M23.748 18.7501H19.998" stroke="#294456" stroke-width="1.5" stroke-linecap="round"/>
</svg>
