<svg width="30" height="30" viewBox="0 0 30 30" fill="none" xmlns="http://www.w3.org/2000/svg">
<path d="M13.6289 24.8376H21.7164C26.3414 24.8376 27.4914 23.6876 27.4914 19.0626C25.8914 19.0626 24.6039 17.7626 24.6039 16.1751C24.6039 14.5751 25.8914 13.2751 27.4914 13.2751V12.1251C27.4914 7.5001 26.3414 6.3501 21.7164 6.3501H13.7414V14.8376" stroke="#294456" stroke-width="1.5" stroke-linecap="round" stroke-linejoin="round"/>
<path d="M13.742 21.0875V24.8375H10.2795C8.42946 24.8375 7.34196 23.575 6.14196 20.675L5.91696 20.1125C7.42946 19.5125 8.16696 17.7625 7.52946 16.25C6.91696 14.7375 5.17946 14.0125 3.65446 14.6375L3.44196 14.1C1.64196 9.7 2.26696 8.1625 6.66696 6.35L9.96696 5L13.742 14.15V17.3375" stroke="#294456" stroke-width="1.5" stroke-linecap="round" stroke-linejoin="round"/>
<path d="M10.2027 24.8376H9.99023" stroke="#294456" stroke-width="1.5" stroke-linecap="round" stroke-linejoin="round"/>
</svg>
