<svg width="30" height="30" viewBox="0 0 30 30" fill="none" xmlns="http://www.w3.org/2000/svg">
<path d="M13.4391 3.0624C14.3016 2.3249 15.714 2.3249 16.589 3.0624L18.5641 4.76254C18.9391 5.08754 19.639 5.35 20.139 5.35H22.2641C23.5891 5.35 24.6765 6.43741 24.6765 7.76241V9.88751C24.6765 10.375 24.939 11.0875 25.264 11.4625L26.9641 13.4375C27.7016 14.3 27.7016 15.7125 26.9641 16.5875L25.264 18.5624C24.939 18.9374 24.6765 19.6374 24.6765 20.1374V22.2625C24.6765 23.5875 23.5891 24.675 22.2641 24.675H20.139C19.6515 24.675 18.9391 24.9374 18.5641 25.2624L16.589 26.9624C15.7265 27.6999 14.3141 27.6999 13.4391 26.9624L11.4641 25.2624C11.0891 24.9374 10.3891 24.675 9.88906 24.675H7.72655C6.40155 24.675 5.31406 23.5875 5.31406 22.2625V20.1249C5.31406 19.6374 5.05157 18.9374 4.73907 18.5624L3.05156 16.575C2.32656 15.7125 2.32656 14.3125 3.05156 13.45L4.73907 11.4625C5.05157 11.0875 5.31406 10.3875 5.31406 9.90002V7.76241C5.31406 6.43741 6.40155 5.35 7.72655 5.35H9.88906C10.3766 5.35 11.0891 5.08754 11.4641 4.76254L13.4391 3.0624Z" stroke="#294456" stroke-width="1.5" stroke-linecap="round" stroke-linejoin="round"/>
<path d="M12.361 18.525L14.1734 19.925C14.4109 20.1625 14.936 20.275 15.286 20.275H17.4984C18.1984 20.275 18.9609 19.75 19.1359 19.05L20.5359 14.775C20.8234 13.9625 20.2985 13.25 19.4235 13.25H17.086C16.736 13.25 16.4485 12.9626 16.4985 12.5501L16.7859 10.6751C16.8984 10.1501 16.5485 9.56256 16.0235 9.38756C15.561 9.21256 14.9735 9.45 14.736 9.8L12.3359 13.3625" stroke="#294456" stroke-width="1.5" stroke-miterlimit="10"/>
<path d="M9.375 18.525V12.8C9.375 11.975 9.725 11.6875 10.55 11.6875H11.1375C11.95 11.6875 12.3125 11.975 12.3125 12.8V18.525C12.3125 19.3375 11.9625 19.6375 11.1375 19.6375H10.55C9.725 19.6375 9.375 19.35 9.375 18.525Z" stroke="#294456" stroke-width="1.5" stroke-linecap="round" stroke-linejoin="round"/>
</svg>
